<svg xmlns="http://www.w3.org/2000/svg" version="1.1" xmlns:xlink="http://www.w3.org/1999/xlink" xmlns:svgjs="http://svgjs.dev/svgjs" viewBox="0 0 800 800"><defs><linearGradient x1="50%" y1="0%" x2="50%" y2="100%" id="nnneon-grad"><stop stop-color="hsl(185, 53%, 55%)" stop-opacity="1" offset="0%"></stop><stop stop-color="hsl(0, 73%, 55%)" stop-opacity="1" offset="100%"></stop></linearGradient><filter id="nnneon-filter" x="-100%" y="-100%" width="400%" height="400%" filterUnits="objectBoundingBox" primitiveUnits="userSpaceOnUse" color-interpolation-filters="sRGB">
	<feGaussianBlur stdDeviation="33 24" x="0%" y="0%" width="100%" height="100%" in="SourceGraphic" edgeMode="none" result="blur"></feGaussianBlur></filter><filter id="nnneon-filter2" x="-100%" y="-100%" width="400%" height="400%" filterUnits="objectBoundingBox" primitiveUnits="userSpaceOnUse" color-interpolation-filters="sRGB">
	<feGaussianBlur stdDeviation="18 28" x="0%" y="0%" width="100%" height="100%" in="SourceGraphic" edgeMode="none" result="blur"></feGaussianBlur></filter></defs><g stroke-width="28.5" stroke="url(#nnneon-grad)" fill="none" transform="rotate(129, 400, 400)"><path d="M382.94894582509335 154.07777826812855C393.5001381485256 147.98714171685188 406.4998618514744 147.98714171685188 417.05105417490665 154.07948337354605L604.4489599788004 262.27353742958104C615.0001523022327 268.3641739808577 621.5000141537071 279.62298505254853 621.5000141537071 291.8059632605194V508.1940713725894C621.5000141537071 520.3770495805602 615.0001523022327 531.635860652251 604.4489599788004 537.7282023089451L417.05105417490665 645.9222563649802C406.4998618514744 652.0128929162568 393.5001381485256 652.0128929162568 382.94894582509335 645.9205512595627L195.55104002119958 537.7264972035277C184.99984769776734 531.635860652251 178.49998584629293 520.3770495805602 178.49998584629293 508.1940713725894V291.8059632605194C178.49998584629293 279.62298505254853 184.99984769776734 268.3641739808577 195.55104002119958 262.2718323241636L382.94894582509335 154.07777826812855Z " filter="url(#nnneon-filter)"></path><path d="M442.94894582509335 154.07777826812855C453.5001381485256 147.98714171685188 466.4998618514744 147.98714171685188 477.05105417490665 154.07948337354605L664.4489599788004 262.27353742958104C675.0001523022327 268.3641739808577 681.5000141537071 279.62298505254853 681.5000141537071 291.8059632605194V508.1940713725894C681.5000141537071 520.3770495805602 675.0001523022327 531.635860652251 664.4489599788004 537.7282023089451L477.05105417490665 645.9222563649802C466.4998618514744 652.0128929162568 453.5001381485256 652.0128929162568 442.94894582509335 645.9205512595627L255.55104002119958 537.7264972035277C244.99984769776734 531.635860652251 238.49998584629293 520.3770495805602 238.49998584629293 508.1940713725894V291.8059632605194C238.49998584629293 279.62298505254853 244.99984769776734 268.3641739808577 255.55104002119958 262.2718323241636L442.94894582509335 154.07777826812855Z " filter="url(#nnneon-filter2)" opacity="0.65"></path><path d="M322.94894582509335 154.07777826812855C333.5001381485256 147.98714171685188 346.4998618514744 147.98714171685188 357.05105417490665 154.07948337354605L544.4489599788004 262.27353742958104C555.0001523022327 268.3641739808577 561.5000141537071 279.62298505254853 561.5000141537071 291.8059632605194V508.1940713725894C561.5000141537071 520.3770495805602 555.0001523022327 531.635860652251 544.4489599788004 537.7282023089451L357.05105417490665 645.9222563649802C346.4998618514744 652.0128929162568 333.5001381485256 652.0128929162568 322.94894582509335 645.9205512595627L135.55104002119958 537.7264972035277C124.99984769776734 531.635860652251 118.49998584629293 520.3770495805602 118.49998584629293 508.1940713725894V291.8059632605194C118.49998584629293 279.62298505254853 124.99984769776734 268.3641739808577 135.55104002119958 262.2718323241636L322.94894582509335 154.07777826812855Z " filter="url(#nnneon-filter2)" opacity="0.65"></path><path d="M382.94894582509335 154.07777826812855C393.5001381485256 147.98714171685188 406.4998618514744 147.98714171685188 417.05105417490665 154.07948337354605L604.4489599788004 262.27353742958104C615.0001523022327 268.3641739808577 621.5000141537071 279.62298505254853 621.5000141537071 291.8059632605194V508.1940713725894C621.5000141537071 520.3770495805602 615.0001523022327 531.635860652251 604.4489599788004 537.7282023089451L417.05105417490665 645.9222563649802C406.4998618514744 652.0128929162568 393.5001381485256 652.0128929162568 382.94894582509335 645.9205512595627L195.55104002119958 537.7264972035277C184.99984769776734 531.635860652251 178.49998584629293 520.3770495805602 178.49998584629293 508.1940713725894V291.8059632605194C178.49998584629293 279.62298505254853 184.99984769776734 268.3641739808577 195.55104002119958 262.2718323241636L382.94894582509335 154.07777826812855Z "></path></g></svg>