<svg xmlns="http://www.w3.org/2000/svg" version="1.1" xmlns:xlink="http://www.w3.org/1999/xlink" xmlns:svgjs="http://svgjs.dev/svgjs" viewBox="0 0 800 800"><defs><linearGradient x1="50%" y1="0%" x2="50%" y2="100%" id="nnneon-grad"><stop stop-color="hsl(162, 100%, 58%)" stop-opacity="1" offset="0%"></stop><stop stop-color="hsl(270, 73%, 53%)" stop-opacity="1" offset="100%"></stop></linearGradient><filter id="nnneon-filter" x="-100%" y="-100%" width="400%" height="400%" filterUnits="objectBoundingBox" primitiveUnits="userSpaceOnUse" color-interpolation-filters="sRGB">
	<feGaussianBlur stdDeviation="33 24" x="0%" y="0%" width="100%" height="100%" in="SourceGraphic" edgeMode="none" result="blur"></feGaussianBlur></filter><filter id="nnneon-filter2" x="-100%" y="-100%" width="400%" height="400%" filterUnits="objectBoundingBox" primitiveUnits="userSpaceOnUse" color-interpolation-filters="sRGB">
	<feGaussianBlur stdDeviation="18 28" x="0%" y="0%" width="100%" height="100%" in="SourceGraphic" edgeMode="none" result="blur"></feGaussianBlur></filter></defs><g stroke-width="28.5" stroke="url(#nnneon-grad)" fill="none" transform="rotate(129, 400, 400)"><path d="M383.9649315472134 186.36831097219996C390.53425159275935 173.09370456208276 409.465772486541 173.09370456208276 416.035092532087 186.36831097219996L619.6213978760368 597.7630336719429C625.5055192349148 609.6529304646167 616.8537676716633 623.5876891342127 603.5881064141136 623.5876891342127H196.41191766518682C183.14625640763705 623.5876891342127 174.49450484438552 609.6529304646167 180.3786262032636 597.7630336719429L383.9649315472134 186.36831097219996Z " filter="url(#nnneon-filter)"></path><path d="M443.9649315472134 186.36831097219996C450.53425159275935 173.09370456208276 469.465772486541 173.09370456208276 476.035092532087 186.36831097219996L679.6213978760368 597.7630336719429C685.5055192349148 609.6529304646167 676.8537676716633 623.5876891342127 663.5881064141136 623.5876891342127H256.4119176651868C243.14625640763705 623.5876891342127 234.49450484438552 609.6529304646167 240.3786262032636 597.7630336719429L443.9649315472134 186.36831097219996Z " filter="url(#nnneon-filter2)" opacity="0.65"></path><path d="M323.9649315472134 186.36831097219996C330.53425159275935 173.09370456208276 349.465772486541 173.09370456208276 356.035092532087 186.36831097219996L559.6213978760368 597.7630336719429C565.5055192349148 609.6529304646167 556.8537676716633 623.5876891342127 543.5881064141136 623.5876891342127H136.41191766518682C123.14625640763705 623.5876891342127 114.49450484438552 609.6529304646167 120.3786262032636 597.7630336719429L323.9649315472134 186.36831097219996Z " filter="url(#nnneon-filter2)" opacity="0.65"></path><path d="M383.9649315472134 186.36831097219996C390.53425159275935 173.09370456208276 409.465772486541 173.09370456208276 416.035092532087 186.36831097219996L619.6213978760368 597.7630336719429C625.5055192349148 609.6529304646167 616.8537676716633 623.5876891342127 603.5881064141136 623.5876891342127H196.41191766518682C183.14625640763705 623.5876891342127 174.49450484438552 609.6529304646167 180.3786262032636 597.7630336719429L383.9649315472134 186.36831097219996Z "></path></g></svg>